<svg xmlns="http://www.w3.org/2000/svg" width="753" height="388" fill="none" viewBox="0 0 753 388"><g filter="url(#filter0_f_2107_171)"><rect width=".5" height="381.5" x="515" y="6.5" fill="url(#paint0_linear_2107_171)"/><rect width=".5" height="381.5" fill="url(#paint1_linear_2107_171)" transform="matrix(-1 0 0 1 609.5 6.5)"/><rect width=".5" height="746.5" x="753" y="150" fill="url(#paint2_linear_2107_171)" transform="rotate(90 753 150)"/><rect width=".5" height="746.5" fill="url(#paint3_linear_2107_171)" transform="matrix(0 -1 -1 0 753 244.5)"/></g><rect width=".5" height="381.5" x="515" y="6.5" fill="url(#paint4_linear_2107_171)"/><rect width=".5" height="381.5" fill="url(#paint5_linear_2107_171)" transform="matrix(-1 0 0 1 609.5 6.5)"/><rect width=".5" height="746.5" x="753" y="150" fill="url(#paint6_linear_2107_171)" transform="rotate(90 753 150)"/><rect width=".5" height="746.5" fill="url(#paint7_linear_2107_171)" transform="matrix(0 -1 -1 0 753 244.5)"/><defs><filter id="filter0_f_2107_171" width="758.5" height="393.5" x=".5" y=".5" color-interpolation-filters="sRGB" filterUnits="userSpaceOnUse"><feFlood flood-opacity="0" result="BackgroundImageFix"/><feBlend in="SourceGraphic" in2="BackgroundImageFix" mode="normal" result="shape"/><feGaussianBlur result="effect1_foregroundBlur_2107_171" stdDeviation="3"/></filter><linearGradient id="paint0_linear_2107_171" x1="515.25" x2="515.25" y1="6.5" y2="388" gradientUnits="userSpaceOnUse"><stop stop-color="#73FF1E" stop-opacity="0"/><stop offset=".505" stop-color="#6ED131"/><stop offset="1" stop-color="#9BFF5D" stop-opacity="0"/></linearGradient><linearGradient id="paint1_linear_2107_171" x1=".25" x2=".25" y1="0" y2="381.5" gradientUnits="userSpaceOnUse"><stop stop-color="#73FF1E" stop-opacity="0"/><stop offset=".505" stop-color="#6ED131"/><stop offset="1" stop-color="#9BFF5D" stop-opacity="0"/></linearGradient><linearGradient id="paint2_linear_2107_171" x1="753.25" x2="753.25" y1="150" y2="896.5" gradientUnits="userSpaceOnUse"><stop stop-color="#73FF1E" stop-opacity="0"/><stop offset=".505" stop-color="#6ED131"/><stop offset="1" stop-color="#9BFF5D" stop-opacity="0"/></linearGradient><linearGradient id="paint3_linear_2107_171" x1=".25" x2=".25" y1="0" y2="746.5" gradientUnits="userSpaceOnUse"><stop stop-color="#73FF1E" stop-opacity="0"/><stop offset=".505" stop-color="#6ED131"/><stop offset="1" stop-color="#9BFF5D" stop-opacity="0"/></linearGradient><linearGradient id="paint4_linear_2107_171" x1="515.25" x2="515.25" y1="6.5" y2="388" gradientUnits="userSpaceOnUse"><stop stop-color="#73FF1E" stop-opacity="0"/><stop offset=".505" stop-color="#6ED131" stop-opacity=".6"/><stop offset="1" stop-color="#9BFF5D" stop-opacity="0"/></linearGradient><linearGradient id="paint5_linear_2107_171" x1=".25" x2=".25" y1="0" y2="381.5" gradientUnits="userSpaceOnUse"><stop stop-color="#73FF1E" stop-opacity="0"/><stop offset=".505" stop-color="#6ED131" stop-opacity=".6"/><stop offset="1" stop-color="#9BFF5D" stop-opacity="0"/></linearGradient><linearGradient id="paint6_linear_2107_171" x1="753.25" x2="753.25" y1="150" y2="896.5" gradientUnits="userSpaceOnUse"><stop stop-color="#73FF1E" stop-opacity="0"/><stop offset=".505" stop-color="#6ED131" stop-opacity=".6"/><stop offset="1" stop-color="#9BFF5D" stop-opacity="0"/></linearGradient><linearGradient id="paint7_linear_2107_171" x1=".25" x2=".25" y1="0" y2="746.5" gradientUnits="userSpaceOnUse"><stop stop-color="#73FF1E" stop-opacity="0"/><stop offset=".505" stop-color="#6ED131" stop-opacity=".6"/><stop offset="1" stop-color="#9BFF5D" stop-opacity="0"/></linearGradient></defs></svg>